<?xml version="1.0" encoding="utf-8"?>
<!-- Generator: Adobe Illustrator 24.0.0, SVG Export Plug-In . SVG Version: 6.00 Build 0)  -->
<svg version="1.1" id="Layer_1" xmlns="http://www.w3.org/2000/svg" xmlns:xlink="http://www.w3.org/1999/xlink" x="0px" y="0px"
	 viewBox="0 0 32 32" style="enable-background:new 0 0 32 32;" xml:space="preserve">
<style type="text/css">
	.st0{fill:#FFFFFF;}
	.st1{fill:url(#SVGID_1_);}
	.st2{fill:url(#SVGID_2_);}
	.st3{fill:url(#SVGID_3_);}
	.st4{fill:url(#SVGID_4_);}
	.st5{fill:url(#SVGID_5_);}
	.st6{fill:url(#SVGID_6_);}
</style>
<circle class="st0" cx="14.91" cy="15.81" r="5.91"/>
<linearGradient id="SVGID_1_" gradientUnits="userSpaceOnUse" x1="7.4203" y1="16.1343" x2="22.4068" y2="16.1343">
	<stop  offset="0" style="stop-color:#00BFF5"/>
	<stop  offset="1" style="stop-color:#0155C3"/>
</linearGradient>
<path class="st1" d="M18.22,20.32c-0.06,0.04-0.13,0.07-0.2,0.11c-0.64,0.28-1.31,0.32-1.99,0.31c-0.1,0-0.2,0.01-0.31,0.01
	c-0.73,0-1.46,0-2.19,0c0,0.92,0,1.83,0,2.75c0.72,0.17,1.45,0.17,2.19,0.09c0.85-0.09,1.67-0.29,2.43-0.7
	c0.05-0.03,0.09-0.05,0.14-0.08c0.74-0.33,1.37-0.81,1.93-1.39c0.23-0.27,0.49-0.52,0.7-0.8c1.91-2.51,1.98-6.13,0.18-8.72
	c-0.26-0.37-0.6-0.67-0.88-1.02c-0.57-0.63-1.26-1.1-2.03-1.46c-0.67-0.36-1.38-0.58-2.13-0.67c-0.61-0.12-1.23-0.15-1.85-0.06
	c0,0.95,0,1.9,0,2.85c0.63-0.01,1.23,0.11,1.79,0.41c1.15,0.74,1.01,2.22,0.37,2.87c-0.19,0.19-0.42,0.33-0.67,0.49
	c0.47,0.2,0.92,0.37,1.24,0.81c-0.36,0.11-0.69,0.21-1.04,0.08c-0.07-0.13-0.2-0.16-0.32-0.21c-0.33-0.13-0.68-0.18-1.04-0.19
	c-0.56-0.01-0.56-0.01-0.54-0.57c0-0.02,0-0.04,0-0.06c-0.01-0.12,0.04-0.16,0.16-0.16c0.2-0.01,0.39-0.02,0.58-0.05
	c0.81-0.14,1.24-0.64,1.22-1.41c-0.02-0.64-0.52-1.09-1.3-1.18c-0.37-0.04-0.74-0.04-1.12-0.02c-0.47,0-0.93,0-1.4-0.02
	c-0.2-0.01-0.23,0.07-0.23,0.25c0.01,0.63,0,1.27,0,1.9c0,0.53,0,0.53,0.52,0.53c0.07,0,0.13,0,0.2,0c0.09,0,0.13,0.03,0.14,0.13
	c0.09,0.57,0.03,0.66-0.54,0.66c-0.05,0-0.09,0-0.14,0c-0.13-0.01-0.18,0.04-0.18,0.18c0,0.78,0.01,1.57,0,2.35
	c0,0.15,0.06,0.19,0.2,0.19c0.49-0.01,0.99-0.01,1.48-0.01c0.42,0,0.84,0.03,1.26-0.01c0.49-0.04,0.96-0.16,1.27-0.59
	c0.13-0.1,0.16-0.27,0.22-0.41c0.03-0.07,0.06-0.13,0.13-0.1c0.18,0.07,0.37,0.03,0.55,0.06c0.23,0.04,0.25,0.13,0.19,0.34
	c-0.16,0.53-0.52,0.89-0.98,1.16c-0.29,0.11-0.58,0.24-0.89,0.29c-0.5,0.08-1.01,0.06-1.52,0.09c-0.84,0-1.68-0.02-2.52-0.01
	c-0.22,0-0.28-0.06-0.28-0.28c0.01-2.41,0.01-4.82,0-7.23c0-0.22,0.06-0.28,0.28-0.28c0.37,0.02,0.75,0,1.12,0c0.6,0,1.2,0,1.79,0
	c0-0.95,0-1.9,0-2.85C13.6,8.72,13,8.85,12.42,9.08c-0.61,0.18-1.16,0.48-1.68,0.84c-0.64,0.4-1.18,0.91-1.64,1.5
	c-0.03,0.03-0.07,0.06-0.1,0.1c-1.44,1.91-1.9,4.04-1.37,6.37c0.26,1.13,0.76,2.16,1.54,3.04c0.44,0.58,0.97,1.04,1.57,1.43
	c0.85,0.59,1.78,0.98,2.8,1.14c0-0.92,0-1.83,0-2.75c-0.19-0.05-0.44,0.08-0.56-0.07c-0.11-0.14-0.03-0.38-0.03-0.57
	c0-0.63,0-0.63,0.62-0.62c0.08,0,0.17,0,0.25,0.01c0,0,0,0,0,0c0,0.09,0.01,0.19,0,0.28c-0.01,0.12,0.04,0.17,0.16,0.16
	c0.75-0.02,1.5,0.03,2.25-0.02c0.49,0.04,0.97-0.01,1.41-0.25c0.5-0.27,0.73-0.73,0.66-1.31c-0.06-0.46-0.42-0.83-0.91-0.99
	c-0.44-0.14-0.89-0.06-1.33-0.15c-0.63,0-1.27,0.01-1.9-0.01c-0.26-0.01-0.38,0.04-0.34,0.33c0.03,0.19-0.01,0.39,0.01,0.59
	c0.02,0.19-0.07,0.24-0.24,0.24c-0.1,0-0.21-0.02-0.31-0.01c-0.26,0.04-0.34-0.05-0.34-0.33c0.02-1.47,0.01-2.95,0.01-4.42
	c0-0.61,0-0.61,0.58-0.65c0.56,0,1.12,0.01,1.68,0.01c0.44,0,0.52,0.09,0.58,0.53c0.03,0.24-0.05,0.29-0.27,0.28
	c-0.49-0.01-0.99,0-1.48,0c-0.11,0-0.22-0.01-0.22,0.16c0.01,0.78,0,1.57,0,2.35c0,0.13,0.05,0.16,0.17,0.16
	c0.61-0.01,1.23,0.03,1.84-0.01c0.4,0.03,0.8,0.01,1.18-0.14c0.53-0.21,0.84-0.58,0.86-1.16c0.02-0.55-0.22-0.95-0.73-1.17
	c-0.11-0.05-0.16-0.1-0.14-0.23c0.01-0.17,0.02-0.34-0.01-0.5c-0.04-0.2,0.06-0.18,0.18-0.15c0.33,0.08,0.63,0.22,0.91,0.41
	c0,0,0,0,0,0c1.09,1,0.92,2.26-0.45,3.24c0.18,0.08,0.36,0.15,0.53,0.23c0.62,0.33,1.01,0.81,1.04,1.54
	C19.23,19.3,18.92,19.91,18.22,20.32z"/>
<linearGradient id="SVGID_2_" gradientUnits="userSpaceOnUse" x1="4.2685" y1="16.633" x2="31.3248" y2="16.633">
	<stop  offset="0" style="stop-color:#00BFF5"/>
	<stop  offset="1" style="stop-color:#0155C3"/>
</linearGradient>
<path class="st2" d="M31.07,23.71c-0.97-0.6-1.93-1.21-2.9-1.8c-0.17-0.1-0.19-0.19-0.13-0.38c0.28-0.83,0.5-1.68,0.69-2.53
	c0.01-0.03,0.04-0.07,0.04-0.1c0.27-1.19,0.47-2.4,0.55-3.62c0.09-1.33-0.07-2.63-0.59-3.87c-0.99-2.37-2.58-4.24-4.72-5.66
	c-0.07-0.05-0.14-0.13-0.25-0.09c0.01,0.02,0.01,0.04,0.02,0.05c1.45,1.5,2.67,3.17,3.58,5.05c0.67,1.38,1.1,2.81,1.03,4.37
	c-0.04,0.81-0.14,1.62-0.27,2.42c-0.3,1.32-0.69,2.61-1.32,3.82c-0.1,0.2-0.31,0.42-0.27,0.59c0.05,0.2,0.36,0.26,0.56,0.37
	c0.53,0.31,1.06,0.61,1.65,0.95c-0.66,0.21-1.26,0.39-1.86,0.58v0c-0.36,0.11-0.72,0.21-1.07,0.32c-0.88,0.28-1.77,0.5-2.63,0.82
	c-0.45,0.13-0.89,0.25-1.33,0.39c-0.14,0.04-0.18,0.02-0.18-0.13c0-0.24-0.02-0.48-0.04-0.73c-0.02-0.6-0.05-1.2-0.07-1.86
	c-0.64,0.6-1.32,1.02-2.01,1.45c-0.83,0.42-1.69,0.75-2.58,1c0.03,0.15,0.07,0.3,0.1,0.44c-0.04-0.15-0.07-0.3-0.1-0.44
	c-1,0.23-2.01,0.27-3.03,0.23c-0.18-0.03-0.36-0.06-0.55-0.08c-0.96-0.13-1.87-0.44-2.75-0.84c-0.11-0.06-0.23-0.11-0.34-0.17
	c-1.05-0.6-1.97-1.35-2.76-2.27c-0.04-0.05-0.07-0.11-0.11-0.16c-1.72-2.33-2.55-4.89-1.97-7.8c0.12-0.4,0.26-0.8,0.39-1.19
	c0.1-0.3,0.24-0.38,0.55-0.32c0.35,0.08,0.72,0.11,1.08,0.16c-0.53-0.41-1.07-0.77-1.61-1.13c-0.13-0.09-0.17-0.04-0.23,0.07
	c-0.25,0.49-0.49,0.98-0.65,1.51c-0.5,1.29-0.72,2.64-0.71,4.01c0.02,2.18,0.7,4.15,1.98,5.91c0.56,0.77,1.18,1.48,1.96,2.04
	c0.89,0.74,1.88,1.34,2.98,1.72c1.06,0.45,2.16,0.68,3.3,0.77c1.04,0.09,2.07,0.04,3.1-0.11c0.91-0.11,1.8-0.29,2.68-0.55
	c0.05-0.01,0.09-0.01,0.14-0.02c1.03-0.27,2.02-0.66,3-1.04c0.21-0.06,0.41-0.11,0.62-0.17c1.05-0.26,2.09-0.53,3.14-0.79
	c1.37-0.33,2.74-0.66,4.16-1.01C31.21,23.8,31.14,23.76,31.07,23.71z"/>
<linearGradient id="SVGID_3_" gradientUnits="userSpaceOnUse" x1="-35.7968" y1="-28.0748" x2="-8.7404" y2="-28.0748" gradientTransform="matrix(-0.9961 -0.0879 0.0879 -0.9961 -6.3144 -15.3728)">
	<stop  offset="0" style="stop-color:#00BFF5"/>
	<stop  offset="1" style="stop-color:#0155C3"/>
</linearGradient>
<path class="st3" d="M0.8,6.33C1.71,7.01,2.62,7.7,3.53,8.38c0.16,0.12,0.18,0.21,0.1,0.39c-0.35,0.8-0.65,1.63-0.91,2.46
	c-0.02,0.03-0.04,0.06-0.05,0.1c-0.37,1.17-0.68,2.35-0.87,3.56c-0.21,1.32-0.16,2.63,0.25,3.91c0.78,2.44,2.2,4.45,4.2,6.05
	c0.07,0.06,0.13,0.14,0.24,0.11c-0.01-0.02-0.01-0.04-0.02-0.05c-1.32-1.62-2.38-3.39-3.13-5.34c-0.54-1.43-0.85-2.9-0.64-4.44
	c0.11-0.81,0.28-1.6,0.48-2.38c0.42-1.29,0.92-2.54,1.65-3.69c0.12-0.19,0.35-0.39,0.32-0.56C5.13,8.29,4.83,8.2,4.64,8.07
	c-0.5-0.35-1-0.7-1.56-1.09C3.76,6.83,4.37,6.7,4.99,6.57l0,0c0.37-0.07,0.73-0.14,1.09-0.22c0.9-0.2,1.81-0.35,2.7-0.59
	c0.45-0.09,0.91-0.17,1.36-0.27c0.14-0.03,0.18,0,0.17,0.15c-0.02,0.24-0.02,0.48-0.03,0.73c-0.03,0.6-0.06,1.2-0.09,1.86
	c0.69-0.54,1.41-0.9,2.13-1.27c0.86-0.35,1.75-0.6,2.66-0.77c-0.02-0.15-0.04-0.3-0.06-0.45c0.02,0.15,0.04,0.3,0.06,0.45
	c1.01-0.14,2.02-0.09,3.04,0.04c0.18,0.04,0.36,0.09,0.54,0.13c0.95,0.22,1.82,0.61,2.67,1.08c0.11,0.07,0.22,0.13,0.33,0.2
	c0.99,0.69,1.85,1.52,2.55,2.5c0.03,0.06,0.07,0.11,0.1,0.17c1.51,2.47,2.11,5.09,1.27,7.94c-0.16,0.39-0.33,0.77-0.49,1.16
	c-0.12,0.29-0.27,0.36-0.57,0.27c-0.34-0.11-0.71-0.17-1.06-0.25c0.49,0.46,1,0.86,1.5,1.27c0.12,0.1,0.17,0.06,0.23-0.05
	c0.29-0.47,0.58-0.93,0.78-1.45c0.61-1.24,0.95-2.56,1.06-3.93c0.17-2.17-0.33-4.2-1.45-6.06c-0.49-0.82-1.05-1.58-1.78-2.2
	C22.86,6.16,21.94,5.49,20.88,5c-1.01-0.54-2.1-0.87-3.22-1.05c-1.02-0.18-2.06-0.23-3.09-0.16c-0.91,0.03-1.82,0.13-2.72,0.31
	c-0.05,0-0.09,0-0.14,0.01c-1.05,0.18-2.07,0.48-3.08,0.77C8.41,4.92,8.2,4.96,7.99,4.99C6.93,5.17,5.86,5.34,4.8,5.51
	C3.4,5.72,2.01,5.93,0.56,6.14C0.67,6.23,0.74,6.28,0.8,6.33z"/>
</svg>
